<?xml version="1.0" encoding="utf-8"?>
<!-- Generator: Adobe Illustrator 26.0.3, SVG Export Plug-In . SVG Version: 6.00 Build 0)  -->
<svg version="1.1" id="Ebene_1" focusable="false" xmlns="http://www.w3.org/2000/svg" xmlns:xlink="http://www.w3.org/1999/xlink"
	 x="0px" y="0px" viewBox="0 0 512 512" style="enable-background:new 0 0 512 512;" xml:space="preserve">
<style type="text/css">
	.st0{display:none;}
</style>
<path class="st0" d="M458.4,64.3C400.6,15.7,311.3,23,256,79.3C200.7,23,111.4,15.6,53.6,64.3C-21.6,127.6-10.6,230.8,43,285.5
	l175.4,178.7c10,10.2,23.4,15.9,37.6,15.9c14.3,0,27.6-5.6,37.6-15.8L469,285.6C522.5,230.9,533.7,127.7,458.4,64.3z M434.8,251.8
	L259.4,430.5c-2.4,2.4-4.4,2.4-6.8,0L77.2,251.8c-36.5-37.2-43.9-107.6,7.3-150.7c38.9-32.7,98.9-27.8,136.5,10.5l35,35.7l35-35.7
	c37.8-38.5,97.8-43.2,136.5-10.6C478.6,144.1,471,214.9,434.8,251.8L434.8,251.8z"/>
<path d="M251.3,28.5c-10.1,9.2-17.5,24.7-32.3,67.1c-6.6,19.7-14.6,40.6-17.5,46.3c-8.9,17.7-6.5,17.2-73.6,17.2
	c-64.2,0-69.7,0.7-80.4,10.7c-12.4,11.4-9.8,25.8,8.1,44.3c4.8,5,23.2,19.9,41,33.4c17.7,13.7,36.3,29,41.3,34.1
	c8.7,9.4,8.9,9.8,7.6,18.3c-1.3,9-7.9,29.9-20.8,66.8c-17.3,48.7-17.3,69.4-0.4,78c14,7.2,33.2-1.1,82.1-35.4
	c16.2-11.4,34.7-23.2,41-26.4c11.6-5.7,11.6-5.7,19.6-2.6c4.4,1.7,25.3,16,46.5,32.1c39.1,29.3,48.9,35.4,64.4,39.3
	c7.2,1.8,9.2,1.7,15.3-1.3c15.9-7.9,17.5-29.5,5.2-70.8c-3.9-12.7-9.8-32.7-13.3-44.3c-3.5-11.6-6.5-25.6-6.6-31.2
	c-0.4-9.6-0.2-10,9-18.4c5.2-4.6,23.8-18.4,41.5-30.6c49.1-33.6,64.6-51.5,58.7-67.1c-6.3-16.2-25.3-22.3-70.1-22.3
	c-34.5-0.2-70.5-3-76.7-5.9c-7.7-3.7-13.8-17-25.5-55.7c-20.5-68.8-28.4-82.3-48.7-82.3C260.4,21.7,257.4,23,251.3,28.5z M277,52.7
	c3.1,5.9,9,22.1,13.3,36.3c22.3,75.4,28,86,50,91.3c4.4,1.1,30.1,2.8,57,3.7c61.4,1.8,75.6,4.8,70.3,14.2c-3.9,7.2-19,19.7-50,41
	c-39.1,27.1-51.1,37.3-55.5,47c-6.5,14-4.2,28.2,12.9,83.6c13.8,44.6,16.2,63.3,7.7,63.3c-7.2,0-26.6-12.2-57.4-36
	c-17.7-13.8-38.2-28-45.6-31.7c-23.2-11.4-32.5-8.5-84.3,28c-45.6,31.9-63.5,40.2-64,29.9c-0.7-11.1,1.7-20.5,16.2-64
	c18.1-53.5,20.3-66,13.8-78.6c-5.2-10.1-20.5-24.2-54.8-50c-31.2-23.4-47.8-39.1-46.7-44.5c1.3-6.5,12.4-7.7,73.1-8.3
	c64.6-0.6,67-0.9,76.7-12.5c7.7-9,12.5-19.9,26-58.8c17.5-50.7,26.2-67.9,33-65.3C270.3,41.8,274,46.9,277,52.7z"/>
</svg>
